<?xml version="1.0" encoding="UTF-8" standalone="no"?>
<!DOCTYPE svg PUBLIC "-//W3C//DTD SVG 1.1//EN"
 "http://www.w3.org/Graphics/SVG/1.1/DTD/svg11.dtd">
<!-- Generated by graphviz version 2.40.1 (20161225.0304)
 -->
<!-- Title: dependencies Pages: 1 -->
<svg width="810pt" height="284pt"
 viewBox="0.00 0.00 810.00 284.00" xmlns="http://www.w3.org/2000/svg" xmlns:xlink="http://www.w3.org/1999/xlink">
<g id="graph0" class="graph" transform="scale(1 1) rotate(0) translate(4 280)">
<title>dependencies</title>
<polygon fill="#ffffff" stroke="transparent" points="-4,4 -4,-280 806,-280 806,4 -4,4"/>
<text text-anchor="start" x="380.0091" y="-42.4" font-family="sans-serif" font-weight="bold" font-size="14.00" fill="#000000">Legend</text>
<polygon fill="#ffffb3" stroke="transparent" points="167,-10 167,-30 187,-30 187,-10 167,-10"/>
<text text-anchor="start" x="190.629" y="-15.4" font-family="sans-serif" font-size="14.00" fill="#000000"> &#160;Declarations</text>
<polygon fill="#8dd3c7" stroke="transparent" points="280,-10 280,-30 300,-30 300,-10 280,-10"/>
<text text-anchor="start" x="303.7251" y="-15.4" font-family="sans-serif" font-size="14.00" fill="#000000"> &#160;Module</text>
<polygon fill="#80b1d3" stroke="transparent" points="366,-10 366,-30 386,-30 386,-10 366,-10"/>
<text text-anchor="start" x="389.7812" y="-15.4" font-family="sans-serif" font-size="14.00" fill="#000000"> &#160;Bootstrap</text>
<polygon fill="#fdb462" stroke="transparent" points="463,-10 463,-30 483,-30 483,-10 463,-10"/>
<text text-anchor="start" x="486.6732" y="-15.4" font-family="sans-serif" font-size="14.00" fill="#000000"> &#160;Providers</text>
<polygon fill="#fb8072" stroke="transparent" points="559,-10 559,-30 579,-30 579,-10 559,-10"/>
<text text-anchor="start" x="582.7258" y="-15.4" font-family="sans-serif" font-size="14.00" fill="#000000"> &#160;Exports</text>
<g id="clust1" class="cluster">
<title>cluster_HereMapsModule</title>
<polygon fill="none" stroke="#000000" stroke-dasharray="1,5" points="8,-70 8,-268 794,-268 794,-70 8,-70"/>
</g>
<g id="clust2" class="cluster">
<title>cluster_HereMapsModule_declarations</title>
<polygon fill="none" stroke="#000000" points="26,-78 26,-130 778,-130 778,-78 26,-78"/>
</g>
<g id="clust9" class="cluster">
<title>cluster_HereMapsModule_exports</title>
<polygon fill="none" stroke="#000000" points="16,-208 16,-260 786,-260 786,-208 16,-208"/>
</g>
<!-- MapBubbleDirective -->
<g id="node1" class="node">
<title>MapBubbleDirective</title>
<polygon fill="#ffffb3" stroke="#000000" points="770.1839,-122 635.8161,-122 635.8161,-86 770.1839,-86 770.1839,-122"/>
<text text-anchor="middle" x="703" y="-99.8" font-family="Times,serif" font-size="14.00" fill="#000000">MapBubbleDirective</text>
</g>
<!-- HereMapsModule -->
<g id="node6" class="node">
<title>HereMapsModule</title>
<polygon fill="#8dd3c7" stroke="#000000" points="474.8501,-187 471.8501,-191 450.8501,-191 447.8501,-187 357.1499,-187 357.1499,-151 474.8501,-151 474.8501,-187"/>
<text text-anchor="middle" x="416" y="-164.8" font-family="Times,serif" font-size="14.00" fill="#000000">HereMapsModule</text>
</g>
<!-- MapBubbleDirective&#45;&gt;HereMapsModule -->
<g id="edge1" class="edge">
<title>MapBubbleDirective&#45;&gt;HereMapsModule</title>
<path fill="none" stroke="#000000" d="M726.7806,-122.2667C726.7806,-140.5552 726.7806,-166 726.7806,-166 726.7806,-166 485.187,-166 485.187,-166"/>
<polygon fill="#000000" stroke="#000000" points="485.187,-162.5001 475.187,-166 485.1869,-169.5001 485.187,-162.5001"/>
</g>
<!-- MapComponent -->
<g id="node2" class="node">
<title>MapComponent</title>
<polygon fill="#ffffb3" stroke="#000000" points="617.4916,-122 510.5084,-122 510.5084,-86 617.4916,-86 617.4916,-122"/>
<text text-anchor="middle" x="564" y="-99.8" font-family="Times,serif" font-size="14.00" fill="#000000">MapComponent</text>
</g>
<!-- MapComponent&#45;&gt;HereMapsModule -->
<g id="edge2" class="edge">
<title>MapComponent&#45;&gt;HereMapsModule</title>
<path fill="none" stroke="#000000" d="M582.2486,-122.0091C582.2486,-138.0494 582.2486,-159 582.2486,-159 582.2486,-159 485.0811,-159 485.0811,-159"/>
<polygon fill="#000000" stroke="#000000" points="485.0812,-155.5001 475.0811,-159 485.0811,-162.5001 485.0812,-155.5001"/>
</g>
<!-- MapDirectionsDirective -->
<g id="node3" class="node">
<title>MapDirectionsDirective</title>
<polygon fill="#ffffb3" stroke="#000000" points="492.0548,-122 339.9452,-122 339.9452,-86 492.0548,-86 492.0548,-122"/>
<text text-anchor="middle" x="416" y="-99.8" font-family="Times,serif" font-size="14.00" fill="#000000">MapDirectionsDirective</text>
</g>
<!-- MapDirectionsDirective&#45;&gt;HereMapsModule -->
<g id="edge3" class="edge">
<title>MapDirectionsDirective&#45;&gt;HereMapsModule</title>
<path fill="none" stroke="#000000" d="M416,-122.1061C416,-122.1061 416,-140.991 416,-140.991"/>
<polygon fill="#000000" stroke="#000000" points="412.5001,-140.9909 416,-150.991 419.5001,-140.991 412.5001,-140.9909"/>
</g>
<!-- MapMakerDirective -->
<g id="node4" class="node">
<title>MapMakerDirective</title>
<polygon fill="#ffffb3" stroke="#000000" points="322.2767,-122 191.7233,-122 191.7233,-86 322.2767,-86 322.2767,-122"/>
<text text-anchor="middle" x="257" y="-99.8" font-family="Times,serif" font-size="14.00" fill="#000000">MapMakerDirective</text>
</g>
<!-- MapMakerDirective&#45;&gt;HereMapsModule -->
<g id="edge4" class="edge">
<title>MapMakerDirective&#45;&gt;HereMapsModule</title>
<path fill="none" stroke="#000000" d="M277.2127,-122.0091C277.2127,-138.0494 277.2127,-159 277.2127,-159 277.2127,-159 347.1417,-159 347.1417,-159"/>
<polygon fill="#000000" stroke="#000000" points="347.1417,-162.5001 357.1417,-159 347.1417,-155.5001 347.1417,-162.5001"/>
</g>
<!-- MapPolylineDirective -->
<g id="node5" class="node">
<title>MapPolylineDirective</title>
<polygon fill="#ffffb3" stroke="#000000" points="174.4116,-122 33.5884,-122 33.5884,-86 174.4116,-86 174.4116,-122"/>
<text text-anchor="middle" x="104" y="-99.8" font-family="Times,serif" font-size="14.00" fill="#000000">MapPolylineDirective</text>
</g>
<!-- MapPolylineDirective&#45;&gt;HereMapsModule -->
<g id="edge5" class="edge">
<title>MapPolylineDirective&#45;&gt;HereMapsModule</title>
<path fill="none" stroke="#000000" d="M123.2352,-122.2667C123.2352,-140.5552 123.2352,-166 123.2352,-166 123.2352,-166 347.1068,-166 347.1068,-166"/>
<polygon fill="#000000" stroke="#000000" points="347.1069,-169.5001 357.1068,-166 347.1068,-162.5001 347.1069,-169.5001"/>
</g>
<!-- MapBubbleDirective  -->
<g id="node7" class="node">
<title>MapBubbleDirective </title>
<polygon fill="#fb8072" stroke="#000000" points="777.6842,-252 640.3158,-252 640.3158,-216 777.6842,-216 777.6842,-252"/>
<text text-anchor="middle" x="709" y="-229.8" font-family="Times,serif" font-size="14.00" fill="#000000">MapBubbleDirective </text>
</g>
<!-- HereMapsModule&#45;&gt;MapBubbleDirective  -->
<g id="edge6" class="edge">
<title>HereMapsModule&#45;&gt;MapBubbleDirective </title>
<path fill="none" stroke="#000000" stroke-dasharray="5,2" d="M475.0284,-173C553.7953,-173 683.4694,-173 683.4694,-173 683.4694,-173 683.4694,-205.698 683.4694,-205.698"/>
<polygon fill="#000000" stroke="#000000" points="679.9695,-205.698 683.4694,-215.698 686.9695,-205.698 679.9695,-205.698"/>
</g>
<!-- MapComponent  -->
<g id="node8" class="node">
<title>MapComponent </title>
<polygon fill="#fb8072" stroke="#000000" points="622.4927,-252 511.5073,-252 511.5073,-216 622.4927,-216 622.4927,-252"/>
<text text-anchor="middle" x="567" y="-229.8" font-family="Times,serif" font-size="14.00" fill="#000000">MapComponent </text>
</g>
<!-- HereMapsModule&#45;&gt;MapComponent  -->
<g id="edge7" class="edge">
<title>HereMapsModule&#45;&gt;MapComponent </title>
<path fill="none" stroke="#000000" stroke-dasharray="5,2" d="M474.9858,-180C509.757,-180 547.0014,-180 547.0014,-180 547.0014,-180 547.0014,-205.7181 547.0014,-205.7181"/>
<polygon fill="#000000" stroke="#000000" points="543.5015,-205.718 547.0014,-215.7181 550.5015,-205.7181 543.5015,-205.718"/>
</g>
<!-- MapDirectionsDirective  -->
<g id="node9" class="node">
<title>MapDirectionsDirective </title>
<polygon fill="#fb8072" stroke="#000000" points="493.5554,-252 338.4446,-252 338.4446,-216 493.5554,-216 493.5554,-252"/>
<text text-anchor="middle" x="416" y="-229.8" font-family="Times,serif" font-size="14.00" fill="#000000">MapDirectionsDirective </text>
</g>
<!-- HereMapsModule&#45;&gt;MapDirectionsDirective  -->
<g id="edge8" class="edge">
<title>HereMapsModule&#45;&gt;MapDirectionsDirective </title>
<path fill="none" stroke="#000000" stroke-dasharray="5,2" d="M416,-187.1061C416,-187.1061 416,-205.991 416,-205.991"/>
<polygon fill="#000000" stroke="#000000" points="412.5001,-205.9909 416,-215.991 419.5001,-205.991 412.5001,-205.9909"/>
</g>
<!-- MapMakerDirective  -->
<g id="node10" class="node">
<title>MapMakerDirective </title>
<polygon fill="#fb8072" stroke="#000000" points="319.7766,-252 186.2234,-252 186.2234,-216 319.7766,-216 319.7766,-252"/>
<text text-anchor="middle" x="253" y="-229.8" font-family="Times,serif" font-size="14.00" fill="#000000">MapMakerDirective </text>
</g>
<!-- HereMapsModule&#45;&gt;MapMakerDirective  -->
<g id="edge9" class="edge">
<title>HereMapsModule&#45;&gt;MapMakerDirective </title>
<path fill="none" stroke="#000000" stroke-dasharray="5,2" d="M357.0843,-180C304.0983,-180 234.5373,-180 234.5373,-180 234.5373,-180 234.5373,-205.7181 234.5373,-205.7181"/>
<polygon fill="#000000" stroke="#000000" points="231.0374,-205.718 234.5373,-215.7181 238.0374,-205.7181 231.0374,-205.718"/>
</g>
<!-- MapPolylineDirective  -->
<g id="node11" class="node">
<title>MapPolylineDirective </title>
<polygon fill="#fb8072" stroke="#000000" points="167.911,-252 24.089,-252 24.089,-216 167.911,-216 167.911,-252"/>
<text text-anchor="middle" x="96" y="-229.8" font-family="Times,serif" font-size="14.00" fill="#000000">MapPolylineDirective </text>
</g>
<!-- HereMapsModule&#45;&gt;MapPolylineDirective  -->
<g id="edge10" class="edge">
<title>HereMapsModule&#45;&gt;MapPolylineDirective </title>
<path fill="none" stroke="#000000" stroke-dasharray="5,2" d="M356.8284,-173C260.0391,-173 78.5148,-173 78.5148,-173 78.5148,-173 78.5148,-205.698 78.5148,-205.698"/>
<polygon fill="#000000" stroke="#000000" points="75.0149,-205.698 78.5148,-215.698 82.0149,-205.698 75.0149,-205.698"/>
</g>
</g>
</svg>
